<svg version="1" xmlns="http://www.w3.org/2000/svg" width="933.333" height="933.333" viewBox="0 0 700.000000 700.000000"><path d="M334.3 137.8c-7.3 10.8-19.2 28.5-26.4 39.2-7.2 10.7-27.3 40.6-44.7 66.5-17.3 25.8-37.5 55.8-44.7 66.5-7.2 10.7-24.3 36.1-38 56.5-41.5 61.8-69.6 103.6-75.2 111.8-2.9 4.3-5.3 8.2-5.3 8.7 0 .4-.3 1-.8 1.2-.4.1-7.5 10.4-15.8 22.8s-21.3 31.7-28.8 42.9-13.6 20.5-13.4 20.6c.2.1 3-.1 6.3-.6 3.3-.4 8.9-1.1 12.5-1.4 3.6-.3 7.6-.8 9-1 1.4-.2 5.4-.7 9-1 3.6-.4 8.1-.8 10-1 1.9-.2 7.3-.7 12-1 4.7-.4 9.2-.8 10.1-1 .9-.2 5.8-.6 11-1 5.2-.3 11-.8 12.9-1 5-.6 19.6-1.7 40-3 6.3-.3 13.1-.8 15-1 1.9-.2 10.3-.6 18.5-1 8.3-.3 17-.8 19.5-1 4.5-.3 38.6-1.5 60-2.1 15.4-.4 114.8-.3 128 .1 25.9.7 51.1 1.6 57.5 2 3.9.3 12 .7 18 1 6.1.3 14.4.7 18.5 1 4.1.3 11.6.7 16.5 1 5 .3 11.5.8 14.5 1 3 .3 8.9.7 13 1 4.1.3 10.2.8 13.5 1 3.3.3 8.5.7 11.5 1 6.1.5 16.3 1.4 22.5 2 2.2.2 6.7.7 10 1 3.3.3 8.5.8 11.5 1.1 3 .2 6.6.6 8 .9 1.4.2 5.7.7 9.5 1 3.9.3 9.6.9 12.8 1.4 3.1.4 5.9.6 6.2.3.3-.4-3.9-7.2-6.7-10.7-.5-.6-1.9-2.6-3.1-4.5-1.3-1.9-5.9-8.7-10.2-15-4.3-6.3-12.4-18.3-18-26.5-5.6-8.3-18.9-27.8-29.6-43.5-10.7-15.7-23.4-34.4-28.2-41.5-4.9-7.2-13.1-19.3-18.4-27-5.2-7.7-16.4-24-24.7-36.3-16.8-24.8-32.4-47.7-46.7-68.7-5.3-7.7-13.4-19.6-18-26.5-4.7-6.9-11.5-16.8-15-22-3.6-5.2-10.8-15.8-16-23.5-5.3-7.7-15.3-22.6-22.4-33-7.1-10.5-14.6-21.5-16.7-24.5-2.1-3-4.3-6.2-4.8-7-.6-.8-3.2-4.7-5.8-8.5-2.7-3.9-9.5-13.9-15.1-22.3-5.7-8.3-10.6-15.2-11-15.2-.3 0-6.6 8.9-13.8 19.8z"/></svg>