<svg id="Ebene_1" data-name="Ebene 1" xmlns="http://www.w3.org/2000/svg" viewBox="0 0 310.5 84">

  <path fill="#f04f50"  d="M121.8 294h-2.2a18.7 18.7 0 0 1-18.7-18.7V264a18.7 18.7 0 0 1 18.7-18.7h2.2a3.5 3.5 0 0 1 3.5 3.5v41.8a3.5 3.5 0 0 1-3.5 3.4zM158 220.6a41.4 41.4 0 0 1 33.8 17.8 4 4 0 0 0 2.7 1.6h.2a3.9 3.9 0 0 0 3.9-5.8c-7.3-12.5-22.8-21.2-40.7-21.2s-33.3 8.7-40.6 21.2a3.9 3.9 0 0 0 3.9 5.9h.2a4 4 0 0 0 2.7-1.7 41.4 41.4 0 0 1 33.8-17.8zM194 245.3h2.2a18.7 18.7 0 0 1 18.7 18.7v11.3a18.7 18.7 0 0 1-18.7 18.7H194a3.5 3.5 0 0 1-3.5-3.5v-41.8a3.5 3.5 0 0 1 3.5-3.4zM405.5 222.4H302.9a6 6 0 0 0-6 6v55a6 6 0 0 0 6 6h41.5a1 1 0 0 0 1-1l2.8-15a6.5 6.5 0 0 1 12.9-.2l2.5 15.2a1 1 0 0 0 1 1h40.9a6 6 0 0 0 6-6v-55a6 6 0 0 0-6-6zm-80.1 44.8a11 11 0 1 1 11-11 11 11 0 0 1-11 11zm57.6 0a11 11 0 1 1 11-11 11 11 0 0 1-11 11z" transform="translate(-101 -213)"/>
  <text transform="translate(143 67)" font-size="60" fill="#f04f50" font-family="Simplifica,Simplifica">
    +
  </text>
</svg>